# xmcd
#
# Track frame offsets:
#	150
#	13367
#	26642
#	40557
#	55360
#	68180
#	80015
#	95295
#	109430
#	123885
#	135575
#
# Disc length: 1962 seconds
#
# Revision: 2
# Processed by: cddbd v1.5.2PL0 Copyright (c) Steve Scherf et al.
# Submitted via: audiograbber 1.83.01
#
DISCID=9307a80b
DTITLE=Otis Redding and Carla Thomas - King and Queen
DYEAR=1967
DGENRE=Soul
TTITLE0=Knock on Wood
TTITLE1=Let Me Be Good to You
TTITLE2=Tramp
TTITLE3=Tell It Like It Is
TTITLE4=When Something is Wrong With My Baby
TTITLE5=Lovey Dovey
TTITLE6=New Year's Resolution
TTITLE7=It Takes Two
TTITLE8=Are You Lonely for Me Baby
TTITLE9=Bring It on Home to Me
TTITLE10=Ooh Carla, Ooh Otis
EXTD=Atlantic Records.  Digitally remastered from the original stereo master ta
EXTD=pes.
EXTT0=
EXTT1=
EXTT2=
EXTT3=
EXTT4=
EXTT5=
EXTT6=
EXTT7=
EXTT8=
EXTT9=
EXTT10=
PLAYORDER=
